<svg xmlns="http://www.w3.org/2000/svg" xmlns:xlink="http://www.w3.org/1999/xlink" viewBox="0 0 895.15 648"><defs><style>.cls-1{fill:none;stroke:#29323c;stroke-miterlimit:10;stroke-width:8px;}.cls-2{fill:url(#linear-gradient);}.cls-3{fill:#29323c;}</style><linearGradient id="linear-gradient" x1="672.47" y1="217.75" x2="996" y2="977.26" gradientUnits="userSpaceOnUse"><stop offset="0" stop-color="#2cd8d5"/><stop offset="0.2" stop-color="#6dcee7"/><stop offset="0.37" stop-color="#9dc7f4"/><stop offset="0.5" stop-color="#bac3fc"/><stop offset="0.57" stop-color="#c5c1ff"/><stop offset="0.67" stop-color="#debee5"/><stop offset="0.78" stop-color="#f0bcd2"/><stop offset="0.88" stop-color="#fbbac7"/><stop offset="1" stop-color="#ffbac3"/></linearGradient></defs><title>ota</title><g id="Layer_8" data-name="Layer 8"><path class="cls-1" d="M462.84,533c69.89-56.51,174.55-111.31,297.06-150.79,117.34-37.82,229.59-54.68,317.7-51.59" transform="translate(-366.43 -226)"/><path class="cls-1" d="M463.84,533c69.89-56.51,174.55-111.31,297.06-150.79,117.34-37.82,229.59-54.68,317.7-51.59" transform="translate(-366.43 -226)"/></g><g id="Layer_1" data-name="Layer 1"><path class="cls-2" d="M500.71,632.94A324.46,324.46,0,0,1,490,550c0-178.94,145.06-324,324-324s324,145.06,324,324S992.94,874,814,874c-150.27,0-276.65-102.3-313.29-241.06" transform="translate(-366.43 -226)"/></g><g id="Layer_2" data-name="Layer 2"><circle class="cls-3" cx="593.07" cy="456.5" r="67.5"/></g><g id="Layer_7" data-name="Layer 7"><path class="cls-1" d="M1078.46,330.6c94,3.45,160.35,29.7,175.76,77.51,29.88,92.7-143,231.37-386.12,309.73s-464.44,66.75-494.32-26c-14.81-45.95,20.2-103.2,88.9-158.8" transform="translate(-366.43 -226)"/></g></svg>